<mxfile host="Electron" agent="Mozilla/5.0 (Windows NT 10.0; Win64; x64) AppleWebKit/537.36 (KHTML, like Gecko) draw.io/26.0.16 Chrome/132.0.6834.196 Electron/34.2.0 Safari/537.36" version="26.0.16">
  <diagram id="C5RBs43oDa-KdzZeNtuy" name="Page-1">
    <mxGraphModel dx="1969" dy="984" grid="1" gridSize="10" guides="1" tooltips="1" connect="1" arrows="1" fold="1" page="1" pageScale="1" pageWidth="827" pageHeight="1169" math="0" shadow="0">
      <root>
        <mxCell id="WIyWlLk6GJQsqaUBKTNV-0" />
        <mxCell id="WIyWlLk6GJQsqaUBKTNV-1" parent="WIyWlLk6GJQsqaUBKTNV-0" />
        <mxCell id="qpXI9RxxiS40Y35wrilr-0" value="CREAZIONE&lt;div&gt;EVENTO&lt;/div&gt;" style="ellipse;whiteSpace=wrap;html=1;labelBackgroundColor=none;fillColor=#A8DADC;strokeColor=#457B9D;fontColor=#1D3557;" parent="WIyWlLk6GJQsqaUBKTNV-1" vertex="1">
          <mxGeometry x="752.5" y="130" width="140" height="70" as="geometry" />
        </mxCell>
        <mxCell id="qpXI9RxxiS40Y35wrilr-1" value="AGGIUNTA&lt;div&gt;BIGLIETTI&lt;/div&gt;" style="ellipse;whiteSpace=wrap;html=1;labelBackgroundColor=none;fillColor=#A8DADC;strokeColor=#457B9D;fontColor=#1D3557;" parent="WIyWlLk6GJQsqaUBKTNV-1" vertex="1">
          <mxGeometry x="762.5" y="275" width="140" height="70" as="geometry" />
        </mxCell>
        <mxCell id="qpXI9RxxiS40Y35wrilr-2" value="APERTURA/CHIUSURA&lt;div&gt;VENDITA BIGLIETTI&lt;/div&gt;" style="ellipse;whiteSpace=wrap;html=1;labelBackgroundColor=none;fillColor=#A8DADC;strokeColor=#457B9D;fontColor=#1D3557;" parent="WIyWlLk6GJQsqaUBKTNV-1" vertex="1">
          <mxGeometry x="762.5" y="415" width="140" height="70" as="geometry" />
        </mxCell>
        <mxCell id="qpXI9RxxiS40Y35wrilr-4" value="VERIFICA ACCESSO&lt;div&gt;EVENTO&lt;/div&gt;" style="ellipse;whiteSpace=wrap;html=1;labelBackgroundColor=none;fillColor=#A8DADC;strokeColor=#457B9D;fontColor=#1D3557;" parent="WIyWlLk6GJQsqaUBKTNV-1" vertex="1">
          <mxGeometry x="757.5" y="557.5" width="140" height="70" as="geometry" />
        </mxCell>
        <mxCell id="qpXI9RxxiS40Y35wrilr-5" value="GESTIONE&lt;div&gt;GUARDAROBA&lt;/div&gt;" style="ellipse;whiteSpace=wrap;html=1;labelBackgroundColor=none;fillColor=#A8DADC;strokeColor=#457B9D;fontColor=#1D3557;" parent="WIyWlLk6GJQsqaUBKTNV-1" vertex="1">
          <mxGeometry x="757.5" y="697.5" width="140" height="70" as="geometry" />
        </mxCell>
        <mxCell id="qpXI9RxxiS40Y35wrilr-6" value="MONITORAGGIO&lt;div&gt;SCORTE&lt;/div&gt;" style="ellipse;whiteSpace=wrap;html=1;labelBackgroundColor=none;fillColor=#A8DADC;strokeColor=#457B9D;fontColor=#1D3557;" parent="WIyWlLk6GJQsqaUBKTNV-1" vertex="1">
          <mxGeometry x="757.5" y="837.5" width="140" height="70" as="geometry" />
        </mxCell>
        <mxCell id="qpXI9RxxiS40Y35wrilr-7" value="VISUALIZZAZIONE&lt;div&gt;TIMELINE SERVIZIO&lt;/div&gt;" style="ellipse;whiteSpace=wrap;html=1;labelBackgroundColor=none;fillColor=#A8DADC;strokeColor=#457B9D;fontColor=#1D3557;" parent="WIyWlLk6GJQsqaUBKTNV-1" vertex="1">
          <mxGeometry x="762.5" y="967.5" width="140" height="70" as="geometry" />
        </mxCell>
        <mxCell id="qpXI9RxxiS40Y35wrilr-17" style="edgeStyle=none;curved=1;rounded=0;orthogonalLoop=1;jettySize=auto;html=1;fontSize=12;startSize=8;endSize=8;labelBackgroundColor=none;strokeColor=#457B9D;fontColor=default;" parent="WIyWlLk6GJQsqaUBKTNV-1" source="qpXI9RxxiS40Y35wrilr-8" target="qpXI9RxxiS40Y35wrilr-4" edge="1">
          <mxGeometry relative="1" as="geometry" />
        </mxCell>
        <mxCell id="qpXI9RxxiS40Y35wrilr-8" value="CLIENTE" style="shape=umlActor;verticalLabelPosition=bottom;verticalAlign=top;html=1;labelBackgroundColor=none;fillColor=#A8DADC;strokeColor=#457B9D;fontColor=#1D3557;" parent="WIyWlLk6GJQsqaUBKTNV-1" vertex="1">
          <mxGeometry x="120" y="518" width="80" height="135" as="geometry" />
        </mxCell>
        <mxCell id="qpXI9RxxiS40Y35wrilr-11" value="GESTORE&lt;div&gt;&lt;span style=&quot;background-color: initial;&quot;&gt;SCORTE&lt;/span&gt;&lt;/div&gt;" style="shape=umlActor;verticalLabelPosition=bottom;verticalAlign=top;html=1;labelBackgroundColor=none;fillColor=#A8DADC;strokeColor=#457B9D;fontColor=#1D3557;" parent="WIyWlLk6GJQsqaUBKTNV-1" vertex="1">
          <mxGeometry x="1460" y="837.5" width="80" height="135" as="geometry" />
        </mxCell>
        <mxCell id="qpXI9RxxiS40Y35wrilr-12" value="&lt;div&gt;STAFF&lt;/div&gt;&lt;div&gt;&lt;br&gt;&lt;/div&gt;" style="shape=umlActor;verticalLabelPosition=bottom;verticalAlign=top;html=1;labelBackgroundColor=none;fillColor=#A8DADC;strokeColor=#457B9D;fontColor=#1D3557;" parent="WIyWlLk6GJQsqaUBKTNV-1" vertex="1">
          <mxGeometry x="1460" y="557.5" width="80" height="135" as="geometry" />
        </mxCell>
        <mxCell id="qpXI9RxxiS40Y35wrilr-14" value="ORGANIZZATORE" style="shape=umlActor;verticalLabelPosition=bottom;verticalAlign=top;html=1;labelBackgroundColor=none;fillColor=#A8DADC;strokeColor=#457B9D;fontColor=#1D3557;" parent="WIyWlLk6GJQsqaUBKTNV-1" vertex="1">
          <mxGeometry x="1460" y="277.5" width="80" height="135" as="geometry" />
        </mxCell>
        <mxCell id="qpXI9RxxiS40Y35wrilr-18" style="edgeStyle=none;curved=1;rounded=0;orthogonalLoop=1;jettySize=auto;html=1;fontSize=12;startSize=8;endSize=8;labelBackgroundColor=none;strokeColor=#457B9D;fontColor=default;" parent="WIyWlLk6GJQsqaUBKTNV-1" source="qpXI9RxxiS40Y35wrilr-8" target="qpXI9RxxiS40Y35wrilr-5" edge="1">
          <mxGeometry relative="1" as="geometry">
            <mxPoint x="150" y="690" as="sourcePoint" />
            <mxPoint x="741" y="631" as="targetPoint" />
          </mxGeometry>
        </mxCell>
        <mxCell id="qpXI9RxxiS40Y35wrilr-20" style="edgeStyle=none;curved=1;rounded=0;orthogonalLoop=1;jettySize=auto;html=1;fontSize=12;startSize=8;endSize=8;labelBackgroundColor=none;strokeColor=#457B9D;fontColor=default;" parent="WIyWlLk6GJQsqaUBKTNV-1" source="qpXI9RxxiS40Y35wrilr-8" target="qpXI9RxxiS40Y35wrilr-2" edge="1">
          <mxGeometry relative="1" as="geometry">
            <mxPoint x="190" y="616" as="sourcePoint" />
            <mxPoint x="761" y="651" as="targetPoint" />
          </mxGeometry>
        </mxCell>
        <mxCell id="qpXI9RxxiS40Y35wrilr-21" style="edgeStyle=none;curved=1;rounded=0;orthogonalLoop=1;jettySize=auto;html=1;fontSize=12;startSize=8;endSize=8;labelBackgroundColor=none;strokeColor=#457B9D;fontColor=default;" parent="WIyWlLk6GJQsqaUBKTNV-1" source="qpXI9RxxiS40Y35wrilr-14" target="qpXI9RxxiS40Y35wrilr-0" edge="1">
          <mxGeometry relative="1" as="geometry">
            <mxPoint x="200" y="626" as="sourcePoint" />
            <mxPoint x="771" y="661" as="targetPoint" />
          </mxGeometry>
        </mxCell>
        <mxCell id="qpXI9RxxiS40Y35wrilr-22" style="edgeStyle=none;curved=1;rounded=0;orthogonalLoop=1;jettySize=auto;html=1;fontSize=12;startSize=8;endSize=8;labelBackgroundColor=none;strokeColor=#457B9D;fontColor=default;" parent="WIyWlLk6GJQsqaUBKTNV-1" source="qpXI9RxxiS40Y35wrilr-14" target="qpXI9RxxiS40Y35wrilr-1" edge="1">
          <mxGeometry relative="1" as="geometry">
            <mxPoint x="1420" y="300" as="sourcePoint" />
            <mxPoint x="872" y="91" as="targetPoint" />
          </mxGeometry>
        </mxCell>
        <mxCell id="qpXI9RxxiS40Y35wrilr-23" style="edgeStyle=none;curved=1;rounded=0;orthogonalLoop=1;jettySize=auto;html=1;fontSize=12;startSize=8;endSize=8;labelBackgroundColor=none;strokeColor=#457B9D;fontColor=default;" parent="WIyWlLk6GJQsqaUBKTNV-1" source="qpXI9RxxiS40Y35wrilr-14" target="qpXI9RxxiS40Y35wrilr-2" edge="1">
          <mxGeometry relative="1" as="geometry">
            <mxPoint x="1520" y="271" as="sourcePoint" />
            <mxPoint x="882" y="101" as="targetPoint" />
          </mxGeometry>
        </mxCell>
        <mxCell id="qpXI9RxxiS40Y35wrilr-25" style="edgeStyle=none;curved=1;rounded=0;orthogonalLoop=1;jettySize=auto;html=1;fontSize=12;startSize=8;endSize=8;labelBackgroundColor=none;strokeColor=#457B9D;fontColor=default;" parent="WIyWlLk6GJQsqaUBKTNV-1" source="qpXI9RxxiS40Y35wrilr-14" target="qpXI9RxxiS40Y35wrilr-4" edge="1">
          <mxGeometry relative="1" as="geometry">
            <mxPoint x="1510" y="270" as="sourcePoint" />
            <mxPoint x="898" y="475" as="targetPoint" />
          </mxGeometry>
        </mxCell>
        <mxCell id="qpXI9RxxiS40Y35wrilr-26" style="edgeStyle=none;curved=1;rounded=0;orthogonalLoop=1;jettySize=auto;html=1;fontSize=12;startSize=8;endSize=8;labelBackgroundColor=none;strokeColor=#457B9D;fontColor=default;" parent="WIyWlLk6GJQsqaUBKTNV-1" source="qpXI9RxxiS40Y35wrilr-14" target="qpXI9RxxiS40Y35wrilr-5" edge="1">
          <mxGeometry relative="1" as="geometry">
            <mxPoint x="1450" y="330" as="sourcePoint" />
            <mxPoint x="908" y="485" as="targetPoint" />
          </mxGeometry>
        </mxCell>
        <mxCell id="qpXI9RxxiS40Y35wrilr-27" style="edgeStyle=none;curved=1;rounded=0;orthogonalLoop=1;jettySize=auto;html=1;fontSize=12;startSize=8;endSize=8;labelBackgroundColor=none;strokeColor=#457B9D;fontColor=default;" parent="WIyWlLk6GJQsqaUBKTNV-1" source="qpXI9RxxiS40Y35wrilr-14" target="qpXI9RxxiS40Y35wrilr-6" edge="1">
          <mxGeometry relative="1" as="geometry">
            <mxPoint x="1480" y="340" as="sourcePoint" />
            <mxPoint x="918" y="495" as="targetPoint" />
          </mxGeometry>
        </mxCell>
        <mxCell id="qpXI9RxxiS40Y35wrilr-28" style="edgeStyle=none;curved=1;rounded=0;orthogonalLoop=1;jettySize=auto;html=1;fontSize=12;startSize=8;endSize=8;labelBackgroundColor=none;strokeColor=#457B9D;fontColor=default;" parent="WIyWlLk6GJQsqaUBKTNV-1" source="qpXI9RxxiS40Y35wrilr-14" target="qpXI9RxxiS40Y35wrilr-7" edge="1">
          <mxGeometry relative="1" as="geometry">
            <mxPoint x="1540" y="300" as="sourcePoint" />
            <mxPoint x="928" y="505" as="targetPoint" />
          </mxGeometry>
        </mxCell>
        <mxCell id="qpXI9RxxiS40Y35wrilr-29" style="edgeStyle=none;curved=1;rounded=0;orthogonalLoop=1;jettySize=auto;html=1;fontSize=12;startSize=8;endSize=8;labelBackgroundColor=none;strokeColor=#457B9D;fontColor=default;" parent="WIyWlLk6GJQsqaUBKTNV-1" source="qpXI9RxxiS40Y35wrilr-12" target="qpXI9RxxiS40Y35wrilr-4" edge="1">
          <mxGeometry relative="1" as="geometry">
            <mxPoint x="1500" y="419.5995690673574" as="sourcePoint" />
            <mxPoint x="909" y="220" as="targetPoint" />
          </mxGeometry>
        </mxCell>
        <mxCell id="qpXI9RxxiS40Y35wrilr-30" style="edgeStyle=none;curved=1;rounded=0;orthogonalLoop=1;jettySize=auto;html=1;fontSize=12;startSize=8;endSize=8;labelBackgroundColor=none;strokeColor=#457B9D;fontColor=default;" parent="WIyWlLk6GJQsqaUBKTNV-1" source="qpXI9RxxiS40Y35wrilr-12" target="qpXI9RxxiS40Y35wrilr-5" edge="1">
          <mxGeometry relative="1" as="geometry">
            <mxPoint x="1500" y="745.4378569612379" as="sourcePoint" />
            <mxPoint x="919" y="230" as="targetPoint" />
          </mxGeometry>
        </mxCell>
        <mxCell id="qpXI9RxxiS40Y35wrilr-31" style="edgeStyle=none;curved=1;rounded=0;orthogonalLoop=1;jettySize=auto;html=1;fontSize=12;startSize=8;endSize=8;labelBackgroundColor=none;strokeColor=#457B9D;fontColor=default;" parent="WIyWlLk6GJQsqaUBKTNV-1" source="qpXI9RxxiS40Y35wrilr-11" target="qpXI9RxxiS40Y35wrilr-6" edge="1">
          <mxGeometry relative="1" as="geometry">
            <mxPoint x="1510" y="755" as="sourcePoint" />
            <mxPoint x="910" y="773" as="targetPoint" />
          </mxGeometry>
        </mxCell>
        <mxCell id="qpXI9RxxiS40Y35wrilr-32" style="edgeStyle=none;curved=1;rounded=0;orthogonalLoop=1;jettySize=auto;html=1;fontSize=12;startSize=8;endSize=8;labelBackgroundColor=none;strokeColor=#457B9D;fontColor=default;" parent="WIyWlLk6GJQsqaUBKTNV-1" source="qpXI9RxxiS40Y35wrilr-12" target="qpXI9RxxiS40Y35wrilr-7" edge="1">
          <mxGeometry relative="1" as="geometry">
            <mxPoint x="1520" y="765" as="sourcePoint" />
            <mxPoint x="920" y="783" as="targetPoint" />
          </mxGeometry>
        </mxCell>
        <mxCell id="qpXI9RxxiS40Y35wrilr-34" style="edgeStyle=none;curved=1;rounded=0;orthogonalLoop=1;jettySize=auto;html=1;fontSize=12;startSize=8;endSize=8;labelBackgroundColor=none;strokeColor=#457B9D;fontColor=default;" parent="WIyWlLk6GJQsqaUBKTNV-1" source="qpXI9RxxiS40Y35wrilr-0" target="qpXI9RxxiS40Y35wrilr-12" edge="1">
          <mxGeometry relative="1" as="geometry">
            <mxPoint x="880" y="90" as="sourcePoint" />
            <mxPoint x="1510" y="417" as="targetPoint" />
          </mxGeometry>
        </mxCell>
        <mxCell id="qpXI9RxxiS40Y35wrilr-36" style="edgeStyle=none;curved=1;rounded=0;orthogonalLoop=1;jettySize=auto;html=1;fontSize=12;startSize=8;endSize=8;labelBackgroundColor=none;strokeColor=#457B9D;fontColor=default;" parent="WIyWlLk6GJQsqaUBKTNV-1" source="qpXI9RxxiS40Y35wrilr-0" target="qpXI9RxxiS40Y35wrilr-11" edge="1">
          <mxGeometry relative="1" as="geometry">
            <mxPoint x="909" y="120" as="sourcePoint" />
            <mxPoint x="1530" y="437" as="targetPoint" />
          </mxGeometry>
        </mxCell>
        <mxCell id="qpXI9RxxiS40Y35wrilr-39" style="edgeStyle=none;curved=1;rounded=0;orthogonalLoop=1;jettySize=auto;html=1;fontSize=12;startSize=8;endSize=8;labelBackgroundColor=none;strokeColor=#457B9D;fontColor=default;" parent="WIyWlLk6GJQsqaUBKTNV-1" source="qpXI9RxxiS40Y35wrilr-12" target="qpXI9RxxiS40Y35wrilr-1" edge="1">
          <mxGeometry relative="1" as="geometry">
            <mxPoint x="1510" y="591" as="sourcePoint" />
            <mxPoint x="900" y="270" as="targetPoint" />
          </mxGeometry>
        </mxCell>
      </root>
    </mxGraphModel>
  </diagram>
</mxfile>
